<?xml version="1.0" encoding="UTF-8"?>
<svg width="100px" height="100px" viewBox="0 0 100 100" version="1.1" xmlns="http://www.w3.org/2000/svg" xmlns:xlink="http://www.w3.org/1999/xlink">
    <!-- Generator: Sketch 41.2 (35397) - http://www.bohemiancoding.com/sketch -->
    <title>Group</title>
    <desc>Created with Sketch.</desc>
    <defs></defs>
    <g id="Page-1" stroke="none" stroke-width="1" fill="none" fill-rule="evenodd">
        <g id="Group" transform="translate(-9.000000, 0.000000)">
            <circle id="Oval" fill="#000000" cx="59" cy="50" r="50"></circle>
            <g id="SP" transform="translate(40.000000, 27.000000)" fill="#FFFFFF">
                <path d="M6.06227995,32.6680656 L6.06227995,40.7566182 L11.1953848,40.7566182 L11.1953848,25.6540793 L4.04852344,25.6540793 C2.98430785,25.6804165 1.95443297,25.2803897 1.1924485,24.5447148 C0.430464036,23.8090399 0.000934975427,22.8000527 0.00126770007,21.746566 L0.00126770007,4.00645565 C-0.0261269671,2.93612949 0.391476023,1.90156347 1.15650295,1.14448585 C1.92152989,0.387408236 2.96695885,-0.0258554845 4.04852344,0.00125452753 L13.228884,0.00125452753 C14.2930996,-0.0250826915 15.3229745,0.374944155 16.0849589,1.11061905 C16.8469434,1.84629394 17.2764725,2.85528117 17.2761397,3.90876782 L17.2761397,13.677551 L11.1953848,13.677551 L11.1953848,5.86252447 L6.06227995,5.86252447 L6.06227995,19.538821 L13.2091413,19.538821 C15.4398889,19.5495116 17.2455942,21.336454 17.256397,23.5440221 L17.256397,42.7103748 C17.2028057,44.8841449 15.4063895,46.618535 13.2091413,46.6178881 L4.04852344,46.6178881 C1.85969324,46.5981948 0.0751987106,44.8753147 0.00126770007,42.7103748 L0.00126770007,32.5508403 L6.06227995,32.6680656 Z M33.9389878,6.03836256 L28.7663975,6.03836256 L28.7663975,19.538821 L33.8995023,19.538821 L33.9389878,6.03836256 Z M22.725128,0.020792094 L35.9527443,0.020792094 C38.1834919,0.0314826844 39.9891972,1.81842507 40,4.02599322 L40,21.609803 C39.9464087,23.7835731 38.1499925,25.5179632 35.9527443,25.5173163 L28.7663975,25.5173163 L28.7663975,46.7937262 L22.725128,46.7937262 L22.725128,0.020792094 Z" id="Shape"></path>
            </g>
            <g id="Ribbon" transform="translate(29.500000, 50.000000) rotate(-15.000000) translate(-29.500000, -50.000000) translate(8.000000, 17.000000)" fill="#FFFFFF">
                <g id="V" transform="translate(21.235776, 32.911594) rotate(-6.000000) translate(-21.235776, -32.911594) translate(3.235776, 1.911594)">
                    <path d="M3.10679807,55.3002588 C3.10679807,55.3002588 3.76550833,53.2875174 4.97314059,51.3950562 C6.18077285,49.502595 8.11898676,47.1813441 8.11898676,47.1813441 L9.22435915,52.2020713 L13.8537523,51.7549076 C13.8537523,51.7549076 11.9414798,53.9688567 10.6114079,55.7296474 C9.28133601,57.490438 8.56313834,58.9049105 8.56313834,58.9049105 L4.57087746,59.5988546" id="Combined-Shape-Copy-3" transform="translate(8.480275, 53.390099) rotate(-42.000000) translate(-8.480275, -53.390099) "></path>
                    <path d="M4.28823007,46.1052556 C4.28823007,46.1052556 3.71920829,44.3799008 3.76829282,42.2715367 C3.81737735,40.1631726 4.12843133,35.8561806 4.12843133,35.8561806 L7.32996424,39.3754836 L11.3447743,37.1419889 C11.3447743,37.1419889 10.875777,40.5901212 10.8055732,42.0849319 C10.7353694,43.5797427 10.934259,45.4270545 10.934259,45.4270545 L7.75008271,49.470309" id="Combined-Shape-Copy-4"></path>
                    <path d="M3.8200311,31.0898917 C3.8200311,31.0898917 5.06751491,28.9487344 6.31703055,27.2498174 C7.5665462,25.5509004 10.7609651,22.4105981 10.7609651,22.4105981 L10.8061059,27.8878123 L15.9083365,28.3516467 C15.9083365,28.3516467 12.9831302,30.6206372 11.8963811,31.9314484 C10.809632,33.2422596 9.44990801,35.3956444 9.44990801,35.3956444 L5.17916574,35.6101045" id="Combined-Shape-Copy-2" transform="translate(9.864184, 29.010351) rotate(-21.000000) translate(-9.864184, -29.010351) "></path>
                    <path d="M9.560894,19.7803833 C9.560894,19.7803833 10.4592389,17.894357 11.8697728,16.0884523 C13.2803066,14.2825476 15.7504653,12.1830267 15.7504653,12.1830267 L15.9927281,17.5367059 L21.3250337,18.280559 C21.3250337,18.280559 19.1876157,20.1173014 18.0008847,21.3723477 C16.8141537,22.627394 15.6636188,24.1397799 15.6636188,24.1397799 L10.710406,24.9833763" id="Combined-Shape-Copy" transform="translate(15.442964, 18.583201) rotate(-7.000000) translate(-15.442964, -18.583201) "></path>
                    <path d="M16.7381389,9.81288892 C16.7381389,9.81288892 18.1654329,7.90064077 20.0551005,6.48156585 C21.9447681,5.06249093 25.1521417,3.57745625 25.1521417,3.57745625 L24.5044282,8.55632141 L29.2027585,10.0289646 C29.2027585,10.0289646 26.6101217,11.622352 25.2458495,12.7508409 C23.8815773,13.8793298 22.3606498,15.4832042 22.3606498,15.4832042 L16.8808964,14.9995684" id="Combined-Shape" transform="translate(22.970449, 9.530330) rotate(-6.000000) translate(-22.970449, -9.530330) "></path>
                    <polyline id="Top" points="27.4055664 6.42017894 29.2642156 1.53882853 35.3341682 0.458413015 32.341933 5.05154478"></polyline>
                </g>
            </g>
            <g id="Ribbon-Copy" transform="translate(89.500000, 50.000000) scale(-1, 1) rotate(-15.000000) translate(-89.500000, -50.000000) translate(68.000000, 17.000000)" fill="#FFFFFF">
                <g id="V" transform="translate(21.235776, 32.911594) rotate(-6.000000) translate(-21.235776, -32.911594) translate(3.235776, 1.911594)">
                    <path d="M3.10679807,55.3002588 C3.10679807,55.3002588 3.76550833,53.2875174 4.97314059,51.3950562 C6.18077285,49.502595 8.11898676,47.1813441 8.11898676,47.1813441 L9.22435915,52.2020713 L13.8537523,51.7549076 C13.8537523,51.7549076 11.9414798,53.9688567 10.6114079,55.7296474 C9.28133601,57.490438 8.56313834,58.9049105 8.56313834,58.9049105 L4.57087746,59.5988546" id="Combined-Shape-Copy-3" transform="translate(8.480275, 53.390099) rotate(-42.000000) translate(-8.480275, -53.390099) "></path>
                    <path d="M4.28823007,46.1052556 C4.28823007,46.1052556 3.71920829,44.3799008 3.76829282,42.2715367 C3.81737735,40.1631726 4.12843133,35.8561806 4.12843133,35.8561806 L7.32996424,39.3754836 L11.3447743,37.1419889 C11.3447743,37.1419889 10.875777,40.5901212 10.8055732,42.0849319 C10.7353694,43.5797427 10.934259,45.4270545 10.934259,45.4270545 L7.75008271,49.470309" id="Combined-Shape-Copy-4"></path>
                    <path d="M3.8200311,31.0898917 C3.8200311,31.0898917 5.06751491,28.9487344 6.31703055,27.2498174 C7.5665462,25.5509004 10.7609651,22.4105981 10.7609651,22.4105981 L10.8061059,27.8878123 L15.9083365,28.3516467 C15.9083365,28.3516467 12.9831302,30.6206372 11.8963811,31.9314484 C10.809632,33.2422596 9.44990801,35.3956444 9.44990801,35.3956444 L5.17916574,35.6101045" id="Combined-Shape-Copy-2" transform="translate(9.864184, 29.010351) rotate(-21.000000) translate(-9.864184, -29.010351) "></path>
                    <path d="M9.560894,19.7803833 C9.560894,19.7803833 10.4592389,17.894357 11.8697728,16.0884523 C13.2803066,14.2825476 15.7504653,12.1830267 15.7504653,12.1830267 L15.9927281,17.5367059 L21.3250337,18.280559 C21.3250337,18.280559 19.1876157,20.1173014 18.0008847,21.3723477 C16.8141537,22.627394 15.6636188,24.1397799 15.6636188,24.1397799 L10.710406,24.9833763" id="Combined-Shape-Copy" transform="translate(15.442964, 18.583201) rotate(-7.000000) translate(-15.442964, -18.583201) "></path>
                    <path d="M16.7381389,9.81288892 C16.7381389,9.81288892 18.1654329,7.90064077 20.0551005,6.48156585 C21.9447681,5.06249093 25.1521417,3.57745625 25.1521417,3.57745625 L24.5044282,8.55632141 L29.2027585,10.0289646 C29.2027585,10.0289646 26.6101217,11.622352 25.2458495,12.7508409 C23.8815773,13.8793298 22.3606498,15.4832042 22.3606498,15.4832042 L16.8808964,14.9995684" id="Combined-Shape" transform="translate(22.970449, 9.530330) rotate(-6.000000) translate(-22.970449, -9.530330) "></path>
                    <polyline id="Top" points="27.4055664 6.42017894 29.2642156 1.53882853 35.3341682 0.458413015 32.341933 5.05154478"></polyline>
                </g>
            </g>
        </g>
    </g>
</svg>